/* XPM */
static char *result[] = {
/* columns rows colors chars-per-pixel */
"32 32 217 2 ",
"   c #5F371D",
".  c #752F0C",
"X  c #75310E",
"o  c #7D310B",
"O  c #7F310A",
"+  c #7F330B",
"@  c #79300D",
"#  c #7C320D",
"$  c #7F330C",
"%  c #7F330D",
"&  c #7D330E",
"*  c #7F330E",
"=  c #7F340C",
"-  c #7F340D",
";  c #7F350D",
":  c #7F340E",
">  c #7F340F",
",  c #7F350F",
"<  c #653111",
"1  c #63361A",
"2  c #54553D",
"3  c #545B45",
"4  c #51725D",
"5  c #767252",
"6  c #7C7353",
"7  c #7D7353",
"8  c #787957",
"9  c #7B7A58",
"0  c #7C7965",
"q  c #802F09",
"w  c #802F0A",
"e  c #80310B",
"r  c #80320A",
"t  c #80340B",
"y  c #80320C",
"u  c #80330C",
"i  c #80320D",
"p  c #80330D",
"a  c #80320E",
"s  c #80330E",
"d  c #80330F",
"f  c #80340C",
"g  c #80340D",
"h  c #80350D",
"j  c #80340E",
"k  c #80350E",
"l  c #80340F",
"z  c #80350F",
"x  c #935942",
"c  c #915A43",
"v  c #965C45",
"b  c #965D45",
"n  c #955D46",
"m  c #975D46",
"M  c #975E46",
"N  c #975E47",
"B  c #985E47",
"V  c #9A5F48",
"C  c #8B654F",
"Z  c #826B4E",
"A  c #826D4F",
"S  c #8A6A4E",
"D  c #8E684D",
"F  c #90634D",
"G  c #9A6048",
"H  c #9B6149",
"J  c #9D634B",
"K  c #9E634B",
"L  c #9C654C",
"P  c #9E674E",
"I  c #876651",
"U  c #8E6E52",
"Y  c #8D6954",
"T  c #8D6D57",
"R  c #9A6D52",
"E  c #8D7658",
"W  c #8C7758",
"Q  c #867D5C",
"!  c #8B7859",
"~  c #897A5A",
"^  c #947053",
"/  c #917154",
"(  c #907456",
")  c #A36346",
"_  c #A0654D",
"`  c #A1654D",
"'  c #A3664D",
"]  c #A4674D",
"[  c #A5674D",
"{  c #AF6A49",
"}  c #A8684C",
"|  c #A9694C",
" . c #AA694C",
".. c #AB6A4C",
"X. c #B06B4A",
"o. c #B06C4B",
"O. c #B16C4B",
"+. c #B46D4B",
"@. c #B46E4B",
"#. c #B56E4B",
"$. c #B7704C",
"%. c #B9724D",
"&. c #BA724D",
"*. c #BE764F",
"=. c #A97051",
"-. c #AC7A5A",
";. c #B97551",
":. c #897F6A",
">. c #917B66",
",. c #C57C52",
"<. c #C67D52",
"1. c #C77D53",
"2. c #C87E53",
"3. c #77825E",
"4. c #528875",
"5. c #678F66",
"6. c #6E8C60",
"7. c #7F8360",
"8. c #778A64",
"9. c #75806D",
"0. c #679167",
"q. c #6C9261",
"w. c #6D936A",
"e. c #69976C",
"r. c #6A966C",
"t. c #669A6E",
"y. c #649C6F",
"u. c #709168",
"i. c #7A986B",
"p. c #728270",
"a. c #708775",
"s. c #748F7D",
"d. c #5EAA6D",
"f. c #5BB76F",
"g. c #5FB96C",
"h. c #5CB86E",
"j. c #4FAF7B",
"k. c #5AA071",
"l. c #5EA172",
"z. c #5AA575",
"x. c #58A776",
"c. c #53AB77",
"v. c #54A977",
"b. c #59AC71",
"n. c #54AB78",
"m. c #50AE7A",
"M. c #55B375",
"N. c #5BB770",
"B. c #58B572",
"V. c #59B672",
"C. c #51B179",
"Z. c #50B07A",
"A. c #6FAE6A",
"S. c #63BD67",
"D. c #66BE65",
"F. c #66BF65",
"G. c #64BD66",
"H. c #65BE66",
"J. c #61BB69",
"K. c #62BA69",
"L. c #61BB6A",
"P. c #61BC69",
"I. c #63BC68",
"U. c #6DC35E",
"Y. c #6EC45C",
"T. c #6EC45D",
"R. c #74C857",
"E. c #73C758",
"W. c #72C759",
"Q. c #70C55B",
"!. c #71C65A",
"~. c #70C65B",
"^. c #6AC161",
"/. c #69C062",
"(. c #68C063",
"). c #999269",
"_. c #888471",
"`. c #878875",
"'. c #CA8054",
"]. c #529481",
"[. c #539784",
"{. c #659584",
"}. c #649F8E",
"|. c #53A08E",
" X c #53A18E",
".X c #54A492",
"XX c #53A795",
"oX c #5CA293",
"OX c #54AD9F",
"+X c #54AEA0",
"@X c #54AFA0",
"#X c #54AFA1",
"$X c #54B0A2",
"%X c #55B1A3",
"&X c #55B2A4",
"*X c #55B3A4",
"=X c #56B7A5",
"-X c #55B5A6",
";X c #55B6A7",
":X c #55B7A7",
">X c #55BCAA",
",X c #56BCAC",
"<X c #57C7B5",
"1X c #59C9B7",
"2X c #58CAB9",
"3X c #58CBB9",
"4X c #70C5B8",
"5X c #79CCBF",
"6X c #78D3C5",
"7X c #839D8C",
"8X c #839E8D",
"9X c #919582",
"0X c #90A28F",
"qX c #80DBCD",
"wX c #91DCD0",
"eX c #87E3D5",
"rX c #A3EBE0",
/* pixels */
"R.R.R.R.R.R.R.R.R.R.R.R.R.R.R.R.R.R.R.R.R.R.R.R.R.R.R.R.R.R.R.R.",
"R.R.R.R.R.R.R.R.R.R.R.R.R.(.R.R.R.R.R.R.R.R.R.R.R.R.R.R.R.R.R.R.",
"R.R.R.R.R.R.R.R.R.R.R.j.T.k.Y.Q.D.S.d.j.T.R.R.R.R.R.R.R.R.R.R.R.",
"R.R.R.R.R.R.R.R.R.R.U.x n.` z.A j.u.E _ c j.R.R.R.R.R.R.R.R.R.R.",
"R.R.R.R.R.R.R.R.R.R.j.+._ #.'.,.'.#.o._ #._ j.R.R.R.R.R.R.R.R.R.",
"R.R.R.R.R.R.R.R.P.j.<.@._ #.2.'.'.#.o._ #.P c.R.R.R.R.R.R.R.R.R.",
"R.R.R.R.R.R.R.h.8.=.1.@._ #.$.'.*.#.o._ #.'.R Z /.R.R.R.R.R.R.R.",
"R.R.R.R.R.R.N.U ..'.%._ _ [ +.#.#.' _ _ _ &.'.O.S G.R.R.R.R.R.R.",
"R.R.R.R.R.R.D.! ] #.} N 7Xm _ } ' _ m 8Xm | #. .y.F.R.R.R.R.R.R.",
"R.R.R.R.R.R.C./ _ _ G `.OX6XG G G _.wXOX9XG _ _ 3.N.R.R.R.R.R.R.",
"R.R.R.R.R.R.6 L m T 5X+X3XOXqXrXeXOX*X3XOX4X>.H ^ 6.R.R.R.R.R.R.",
"R.R.R.R.R.~.v.H 0XOX#X3XXX3X&X#X+X3X=XX 3X$XOXY b m.W.R.R.R.R.R.",
"R.R.R.R.R.R.M._ B :X3Xj l j .X1X3Xj j k & 3X@XK _ P.R.R.R.R.R.R.",
"R.R.R.R.R.R.R.Q ) :Xg g l j l j g g h k k f #X{ e.R.R.R.R.R.R.R.",
"R.R.R.R.R.R.j.Q ) :Xz s d h j g j f g g g p @X{ r.j.R.R.R.R.R.R.",
"R.R.R.R.R.R.V.~ 9.;X, , j d h j : g k k % d +XC t.I.R.R.R.R.R.R.",
"R.R.R.R.R.R.8 M oX4.l j k j s k k p p g u p <X{.V 5.R.R.R.R.R.R.",
"R.R.R.R.R.R.Z.D }. Xl l l z p l ; h h g p d 3Xa.9 B.R.R.R.R.R.R.",
"R.R.R.R.R.f.8 _ 0 -X1 , > h k g p l u d u   OXF _ q.L.R.R.R.R.R.",
"R.R.R.R.R.R.V.~ ) ;X|.h k h k l s g d - u 3X+XX.t.I.R.R.R.R.R.R.",
"R.R.R.R.R.R.M.H ) :X[.j z z j j k , % $ q 3X@X{ n J.R.R.R.R.R.R.",
"R.R.R.R.R.R.R.Q B :X].g g h g l j * * % w 1X#XJ e.R.R.R.R.R.R.R.",
"R.R.R.R.R.R.j.H p.3Xj p k k j s p p u p r O 2XI v j.R.R.R.R.R.R.",
"R.R.R.R.R.R.b.7 ,X4 j g j j j l g y p u u + >X%X0.K.R.R.R.R.R.R.",
"R.R.R.R.R.R.U.).s.3X; g g k s g i s h f p - 3X:.i.!.R.R.R.R.R.R.",
"R.R.R.R.R.R.R.D.l.-.2 k u h d p = - - p j 3 ;.w.D.R.R.R.R.R.R.R.",
"R.R.R.R.R.R.R.R.P.A.5 = t k h g : : g g g 7.g.!.R.R.R.R.R.R.R.R.",
"R.R.R.R.R.R.R.R.R.^.( e i % u i u p l g g W E.R.R.R.R.R.R.R.R.R.",
"R.R.R.R.R.R.R.R.R.R.Y.j.i a % @ # # g . j.R.R.R.R.R.R.R.R.R.R.R.",
"R.R.R.R.R.R.R.R.R.R.R.W.j.o x.W j.u.< j.R.R.R.R.R.R.R.R.R.R.R.R.",
"R.R.R.R.R.R.R.R.R.R.R.R.R.j.R.R.H.H.B.R.R.R.R.R.R.R.R.R.R.R.R.R.",
"R.R.R.R.R.R.R.R.R.R.R.R.R.W.R.R.R.R.R.R.R.R.R.R.R.R.R.R.R.R.R.R."
};
