/* XPM */
static char *result[] = {
/* columns rows colors chars-per-pixel */
"32 32 229 2 ",
"   c black",
".  c #000100",
"X  c #010100",
"o  c #000001",
"O  c #000200",
"+  c #000300",
"@  c #010300",
"#  c #000003",
"$  c #020002",
"%  c #030002",
"&  c #030003",
"*  c #050103",
"=  c #060103",
"-  c #050302",
";  c #030400",
":  c #040500",
">  c #070501",
",  c #060601",
"<  c #070601",
"1  c #040004",
"2  c #060105",
"3  c #080701",
"4  c #090603",
"5  c #080006",
"6  c #0C0307",
"7  c #0A0A00",
"8  c #0A0802",
"9  c #0F0E01",
"0  c #0E0905",
"q  c #0B0108",
"w  c #0B0109",
"e  c #0D000A",
"r  c #0E010A",
"t  c #0E000B",
"y  c #110C01",
"u  c #120E00",
"i  c #150D07",
"p  c #180F02",
"a  c #1B0E06",
"s  c #100309",
"d  c #11040A",
"f  c #12040B",
"g  c #11000E",
"h  c #11000F",
"j  c #14030D",
"k  c #15030D",
"l  c #14040C",
"z  c #161002",
"x  c #191007",
"c  c #1C1006",
"v  c #191504",
"b  c #1F130A",
"n  c #1E1508",
"m  c #140010",
"M  c #170310",
"N  c #1A0510",
"B  c #1D0513",
"V  c #1E0712",
"C  c #1F0713",
"Z  c #190014",
"A  c #1E0414",
"S  c #211404",
"D  c #201707",
"F  c #211707",
"G  c #231409",
"H  c #251509",
"J  c #251608",
"K  c #271609",
"L  c #26170C",
"P  c #231908",
"I  c #2A1908",
"U  c #220416",
"Y  c #250816",
"T  c #35200C",
"R  c #39200D",
"E  c #3D230E",
"W  c #3E240E",
"Q  c #3D2210",
"!  c #3D2919",
"~  c #422410",
"^  c #412715",
"/  c #412913",
"(  c #432815",
")  c #482812",
"_  c #492912",
"`  c #492913",
"'  c #4A2912",
"]  c #4D2B13",
"[  c #4E2B13",
"{  c #4E2B14",
"}  c #4A2F15",
"|  c #4F2C14",
" . c #422F1B",
".. c #4B2D18",
"X. c #4C2E18",
"o. c #502C14",
"O. c #522E15",
"+. c #542F15",
"@. c #543017",
"#. c #593217",
"$. c #5A3217",
"%. c #5B3317",
"&. c #5C3317",
"*. c #5E3519",
"=. c #5A371D",
"-. c #593819",
";. c #5F391E",
":. c #663B1D",
">. c #693C1D",
",. c #543A26",
"<. c #653D20",
"1. c #683F21",
"2. c #5D4128",
"3. c #5F4329",
"4. c #6A4022",
"5. c #6F4323",
"6. c #6F4422",
"7. c #614329",
"8. c #62442A",
"9. c #6A492C",
"0. c #784622",
"q. c #7F5535",
"w. c #834F29",
"e. c #80512F",
"r. c #89532B",
"t. c #8A532C",
"y. c #955A2F",
"u. c #835735",
"i. c #825838",
"p. c #845938",
"a. c #8D5D39",
"s. c #8D5E3B",
"d. c #8F5E3A",
"f. c #8B5E3C",
"g. c #93603A",
"h. c #95623B",
"j. c #97623B",
"k. c #90613E",
"l. c #96633D",
"z. c #A06133",
"x. c #A16332",
"c. c #A26233",
"v. c #A26333",
"b. c #A46433",
"n. c #A46533",
"m. c #A46334",
"M. c #AC6935",
"N. c #AE6A37",
"B. c #A96B3E",
"V. c #AC6D3E",
"C. c #AD6D3E",
"Z. c #AE6E3E",
"A. c #AF6E3E",
"S. c #B16B38",
"D. c #B3703F",
"F. c #BB733E",
"G. c #C3763E",
"H. c #C4763E",
"J. c #C5773E",
"K. c #C5783E",
"L. c #C6783E",
"P. c #C7793F",
"I. c #C8793F",
"U. c #B07040",
"Y. c #BB7440",
"T. c #BB7643",
"R. c #BC7440",
"E. c #C07741",
"W. c #C37842",
"Q. c #C57941",
"!. c #C27A45",
"~. c #CB7B40",
"^. c #C97B42",
"/. c #CE7D41",
"(. c #CF7D41",
"). c #D07D41",
"_. c #D17D41",
"`. c #D17E42",
"'. c #D17F42",
"]. c #D27F42",
"[. c #D07F44",
"{. c #D28043",
"}. c #D38043",
"|. c #D48044",
" X c #D58144",
".X c #D68144",
"XX c #D68244",
"oX c #D78244",
"OX c #D88244",
"+X c #D98244",
"@X c #D88344",
"#X c #D98344",
"$X c #D98345",
"%X c #DA8344",
"&X c #D98445",
"*X c #DA8444",
"=X c #DA8445",
"-X c #DB8445",
";X c #DB8545",
":X c #DA8446",
">X c #DC8545",
",X c #DD8545",
"<X c #DE8645",
"1X c #DF8645",
"2X c #DD8646",
"3X c #DE8646",
"4X c #DF8746",
"5X c #DF8747",
"6X c #E08645",
"7X c #E08747",
"8X c #E08847",
"9X c #E18847",
"0X c #E48947",
"qX c #E58A47",
"wX c #E28948",
"eX c #E38948",
"rX c #E48A48",
"tX c #E58B49",
"yX c #E78B48",
"uX c #E78C49",
"iX c #E98C49",
"pX c #E88D49",
"aX c #EA8D49",
"sX c #E98D4A",
"dX c #EB8E4A",
"fX c #EC8F4B",
"gX c #ED8F4B",
"hX c #EE904C",
"jX c None",
/* pixels */
"jXjXjXjXjXjXjXjXjXjXjXjXjXjXjXjXjXjXjXjXjXjXjXjXjXjXjXjXjXjXjXjX",
"jXjXjXjXjXjXjXjXjXjXjXjXjXjXjXjXjXjXjXjXjXjXjXjXjXjXjXjXjXjXjXjX",
"jXjXjXjXjXjXjXjXjXjXjXjXjXjXjXjXjXjXjXjXjXjXjXjXjXjXjXjXjXjXjXjX",
"jXjXjXjXjXjXjXjXjXjXjXjXjXjXjXjXjXjXjXjXjXjXjXjXjXjXjXjXjXjXjXjX",
"jXjXjXjXjXjXjXjXjXjXjXjXjXjXjXjXjXB A B jXjXjXjXjXjXjXjXjXjXjXjX",
"jXjXjXjXjXjXjXjXjXjXjXjXjXjXjXjX& 7 S u   jXjXjXjXjXjXjXjXjXjXjX",
"jXjXjXjXjXjXjXjXjXjXjXjXjXjXjXjX5 / :.R   jXjXjXjXjXjXjXjXjXjXjX",
"jXjXjXjXjXjXjXjXjXjXjXjXjXjXjXjX1 3.e.~ 4 < 3 < < < ; ;   N jXjX",
"jXjXjXjXjXjXjXjXjXjXjXjXjXjXjX=   ,.U._.P.(.'.~.I.G.u.p.!   f jX",
"jXjXjXjXjXjXjXjXjXjXjXjXjXjXe   r.F.[.eXoX^ b w.gX:Xs.f.q. .  jX",
"jXjXjXjXjXjXjXjXjXjXjXjXjXg O 5.=X0X#X=X].<.X.y.9X XD.a.k.9.$ jX",
"jXjXjXjXjXjXjXjXjXjXjXjXt + ;.dX=XXXoXoXOXtXpX5X.XoX1XA.l.7.% jX",
"jXjXjXjXjX  : < , , , ,   4.fXoXoXoXoXoXoXOXOXOXOXOXOX6XT.2.$ jX",
"jXjXjXjX    N./.L.L.L.K.J./.$XoXoXoXoXoXoX7X9X9X9X9X9XyX!.8.$ jX",
"jXjXjXjX9 z.$X9X9XqX0X4X4X-XXXoXoXoX.X5X8X..                  jX",
"jXjXjXjXP sX-X%XQ.B.Z.}.#XoXoXoXoXoX2XH.1.  Z jXjXjXjXjXjXjXjXjX",
"jXjXjXjXD -X-X<XR.d.j.{.>X@XoXoXoXoXrXv.  k jXjXjXjXjXjXjXjXjXjX",
"jXjXjXjXD -XXX{..X*X#X|.{. XoXoXoXoXrXn.o jXjXjXjXjXjXjXjXjXjXjX",
"jXjXjXjXF &Xh.i.V.1X Xg.i.C.>XoXoXXXsXM.o jXjXjXjXjXjXjXjXjXjXjX",
"jXjXjX# x -XW.Y.^.#XXXE.Y.^.#XoXoXwXy.n   jXjXjXjXjXjXjXjXjXjXjX",
"jXjXU v t.$X,X,X#X$XrXiXaXuX9XoXXXhX6.  jXjXjXjXjXjXjXjXjXjXjXjX",
"jXjXh } +X;XoX-X8X].m.x.b.c.S.3X2X).-.m jXjXjXjXjXjXjXjXjXjXjXjX",
"jX6   a >.}.$X`.@Xc.  o     L }.$X0.p M jXjXjXjXjXjXjXjXjXjXjXjX",
"jXq I | { *.3X=.- 8   jXjX  X i @.%.K   d jXjXjXjXjXjXjXjXjXjXjX",
"jXw T $.[ ' ( 0   r jXjXjX      ) +.) J   jXjXjXjXjXjXjXjXjXjXjX",
"jX2 y Q +.]       s jXjXjX      G ` &.W & jXjXjXjXjXjXjXjXjXjXjX",
"jXjXo c #.| > j f   jXjXjX  * V   H o.E & jXjXjXjXjXjXjXjXjXjXjX",
"jXjXjXz O._ + jXjXjXjXjXjX  Y jXl   H E & jXjXjXjXjXjXjXjXjXjXjX",
"jXjXjX  @ O   jXjXjXjXjXjXjXjXjXjXC   .   jXjXjXjXjXjXjXjXjXjXjX",
"jXjXjXjXjXjXjXjXjXjXjXjXjXjXjXjXjXjXjXjXjXjXjXjXjXjXjXjXjXjXjXjX",
"jXjXjXjXjXjXjXjXjXjXjXjXjXjXjXjXjXjXjXjXjXjXjXjXjXjXjXjXjXjXjXjX",
"jXjXjXjXjXjXjXjXjXjXjXjXjXjXjXjXjXjXjXjXjXjXjXjXjXjXjXjXjXjXjXjX"
};
