/* XPM */
static char *result[] = {
/* columns rows colors chars-per-pixel */
"32 32 245 2 ",
"   c black",
".  c #010000",
"X  c #020001",
"o  c #040103",
"O  c #050103",
"+  c #070402",
"@  c #060104",
"#  c #070204",
"$  c #070404",
"%  c #080503",
"&  c #090503",
"*  c #090602",
"=  c #0B0702",
"-  c #0C0703",
";  c #080205",
":  c #090206",
">  c #0A0206",
",  c #0A0207",
"<  c #0C0704",
"1  c #0E0904",
"2  c #0E0806",
"3  c #0C0308",
"4  c #0F0209",
"5  c #100A04",
"6  c #120A05",
"7  c #130A05",
"8  c #120B05",
"9  c #120B06",
"0  c #130B06",
"q  c #140A07",
"w  c #140C04",
"e  c #160C05",
"r  c #140C06",
"t  c #180D06",
"y  c #190E06",
"u  c #1A0F06",
"i  c #16050E",
"p  c #1F1207",
"a  c #1B1108",
"s  c #1C1208",
"d  c #201208",
"f  c #231308",
"g  c #20140A",
"h  c #22140B",
"j  c #22110E",
"k  c #24150D",
"l  c #2B180B",
"z  c #28180C",
"x  c #28180D",
"c  c #2A1A0C",
"v  c #2B1B0D",
"b  c #2C190D",
"n  c #2E190C",
"m  c #2C1C0E",
"M  c #331E0F",
"N  c #361F0D",
"B  c #341C0E",
"V  c #361F0F",
"C  c #371F0F",
"Z  c #291311",
"A  c #39210D",
"S  c #39210F",
"D  c #3B210F",
"F  c #2F2113",
"G  c #352316",
"H  c #362614",
"J  c #392011",
"K  c #3D2210",
"L  c #3E2310",
"P  c #3F2513",
"I  c #452711",
"U  c #472913",
"Y  c #472C17",
"T  c #4B2A13",
"R  c #4B2A14",
"E  c #4B2B14",
"W  c #4C2B14",
"Q  c #482C17",
"!  c #4E2C14",
"~  c #412D1B",
"^  c #442F1B",
"/  c #532F16",
"(  c #4E3019",
")  c #4F3019",
"_  c #49311C",
"`  c #543319",
"'  c #5A361C",
"]  c #5A371C",
"[  c #5C381D",
"{  c #543622",
"}  c #613C20",
"|  c #693F23",
" . c #6D4123",
".. c #6D4024",
"X. c #624229",
"o. c #69472C",
"O. c #764421",
"+. c #704026",
"@. c #714026",
"#. c #704424",
"$. c #754725",
"%. c #7A4723",
"&. c #794927",
"*. c #7E4B26",
"=. c #7A4C25",
"-. c #7E4E26",
";. c #7E4F26",
":. c #7A4B2A",
">. c #7F5331",
",. c #7D5434",
"<. c #814D29",
"1. c #834E28",
"2. c #855029",
"3. c #85502A",
"4. c #87522A",
"5. c #80532C",
"6. c #8F552B",
"7. c #8F562C",
"8. c #90572D",
"9. c #91572D",
"0. c #955C2E",
"q. c #985E2F",
"w. c #8D5D37",
"e. c #855938",
"r. c #985C30",
"t. c #995C30",
"y. c #995E30",
"u. c #9C5E31",
"i. c #9D5F31",
"p. c #9F6131",
"a. c #9F6032",
"s. c #9F6132",
"d. c #9E6235",
"f. c #98633C",
"g. c #9D663C",
"h. c #A06132",
"j. c #A26232",
"k. c #A26233",
"l. c #A36334",
"z. c #A56334",
"x. c #A76535",
"c. c #A96533",
"v. c #A86635",
"b. c #A86735",
"n. c #AB6836",
"m. c #AD6936",
"M. c #AC6837",
"N. c #AD6937",
"B. c #AC6A36",
"V. c #AD6A36",
"C. c #AE6B36",
"Z. c #A5693B",
"A. c #A76A3D",
"S. c #A96C3E",
"D. c #AC6C3E",
"F. c #B06B38",
"G. c #B36B38",
"H. c #B76F3A",
"J. c #B06F3F",
"K. c #B2703F",
"L. c #B7723F",
"P. c #BA713A",
"I. c #BA713B",
"U. c #BB713B",
"Y. c #BB723B",
"T. c #BC733B",
"R. c #BD733B",
"E. c #BE733D",
"W. c #BF743D",
"Q. c #C1743D",
"!. c #C3763E",
"~. c #C5783E",
"^. c #C7783E",
"/. c #C7783F",
"(. c #C97A3F",
"). c #CA7A3F",
"_. c #B57240",
"`. c #B67240",
"'. c #B77240",
"]. c #B97340",
"[. c #BC7540",
"{. c #BE7540",
"}. c #C17741",
"|. c #C17841",
" X c #C27841",
".X c #C57942",
"XX c #C57A42",
"oX c #C77A42",
"OX c #CA7A40",
"+X c #C87B42",
"@X c #CA7C42",
"#X c #CD7C41",
"$X c #CC7C42",
"%X c #CE7D43",
"&X c #CE7E42",
"*X c #CF7E43",
"=X c #CD7E44",
"-X c #D07D42",
";X c #D07E42",
":X c #D17E42",
">X c #D17F43",
",X c #D27E42",
"<X c #D27F42",
"1X c #D37F42",
"2X c #D37F43",
"3X c #D07F44",
"4X c #D17F44",
"5X c #D28043",
"6X c #D48043",
"7X c #D48143",
"8X c #D58143",
"9X c #D68143",
"0X c #D78243",
"qX c #D38044",
"wX c #D58044",
"eX c #D48144",
"rX c #D58144",
"tX c #D68144",
"yX c #D68244",
"uX c #D78244",
"iX c #D58246",
"pX c #D88244",
"aX c #D88344",
"sX c #D98344",
"dX c #D88245",
"fX c #D88345",
"gX c #D98345",
"hX c #D88445",
"jX c #DA8445",
"kX c #DB8545",
"lX c #DB8446",
"zX c #DC8545",
"xX c #DC8546",
"cX c #DD8546",
"vX c #DE8546",
"bX c #DC8646",
"nX c #DE8646",
"mX c #DF8646",
"MX c #DF8746",
"NX c #DF8747",
"BX c #E08747",
"VX c #E18847",
"CX c #E28847",
"ZX c #E28948",
"AX c None",
/* pixels */
"AXAXAXAXAXAXAXAXAXAXAXAXAXAXAXAXAXAXAXAXAXAXAXAXAXAXAXAXAXAXAXAX",
"AXAXAXAXAXAXAXAXAXAXAXAXAXAXAXAXAXAXAXAXAXAXAXAXAXAXAXAXAXAXAXAX",
"AXAXAXAXAXAXAXAXAXAXAXAXAXAXAXAXAXAXAXAXAXAXAXAXAXAXAXAXAXAXAXAX",
"AXAXAXAXAXAXAXAXAXAXAXAXAXAXAXAXAXAXAXAXAXAXAXAXAXAXAXAXAXAXAXAX",
"AXAXAXAXAXAXAXAXAXAXAXAXAXAXAXAXAXAXAXAXAXAXAXAXAXAXAXAXAXAXAXAX",
"AXAXAXAXAXAXAXAXAXAXAXAXAXAXAXAXAXAXAXAXAXAXAXAXAXAXAXAXAXAXAXAX",
"AXAXAXAXAXAXAXAXAXAXAXAXAX< q   AXAXAXAXAXAXAXAXAXAXAXAXAXAXAXAX",
"AXAXAXAXAXAXAXAXAXAXAXAX7 l B   AXAXAXAXAXAXAXAXAXAXAXAXAXAXAXAX",
"AXAX                    C R J   AXAXAXAXAXAXAXAXAXAXAXAXAXAXAXAX",
"  2 G X.>.d.N.v.l.x.m.j.*.} {   AXAXAXAXAXAXAXAXAXAXAXAXAXAXAXAX",
"  F o.e.g.XX/.3.) #.U.0XQ.M.:., AXAXAXAXAXAXAXAXAXAXAXAXAXAXAXAX",
"  ~ ,.f._.3X#Xz.2.r.~.lXdX2Xu.% 4 AXAXAXAXAXAXAXAXAXAXAXAXAXAXAX",
"  ^ w.`.%XuXyX6X<X1X9XuXuXaX:Xt.. 3 AXAXAXAXAXAXAXAXAXAXAXAXAXAX",
"  _ Z.iXNXNXNXVXCXmXgXtXuXuX8XG.P @ AXAXAXAXAXAXAXAXAXAXAXAXAXAX",
"  H 5.b.C.V.V.B.F.E.2XjXyXuXuX-Xi.  o @ @ @ @ @ @ @ @ X AXAXAXAX",
"          9 9 9 0 Q n.yXfXuXuXpX;Xx.a.p.s.h.h.p.s.k.' j $ AXAXAX",
"AXAXAXAXAXAXAXAXAX& Y F.bXuXuXuXuXtXtX8XeX5X5X7XrXuXH.[ r AXAXAX",
"AXAXAXAXAXAXAXAXAXAXm y.BXuXuXuXuXpXaXjXXXS.K.4XuXaXzX=.a AXAXAX",
"AXAXAXAXAXAXAXAXAXAXc 0.BXuXuXuXuXuXaXjX+XJ.L.qXaXuXMX;.s AXAXAX",
"AXAXAXAXAXAXAXAXAXAXv q.ZXtXuXuXuXrX}.`.|.&X@X[.].$XnX-.s AXAXAX",
"AXAXAXAXAXAXAXAXAXAX1 ] OXlXuXuXuXwX'.A.{.sX>XK.D.oXcX-.s AXAXAX",
"AXAXAXAXAXAXAXAXAXAXAXz 8.,XkXkXxXlX=X.X3XvXhXXX X*XnX-.s AXAXAX",
"AXAXAXAXAXAXAXAXAXAXAX8 ` c.).^.W.R.Y.P.Y.T.!.rXgXjXCX4.g   AXAX",
"AXAXAXAXAXAXAXAXAXAXAX- S O.6.1. ...+.@.+.| $.I.(.(.1X7.V *   AX",
"AXAXAXAXAXAXAXAXAXAXAX6 L / E b Z AXAXAXAXAXk ( &.<.9.%.W d + AX",
"AXAXAXAXAXAXAXAXAXAXAXu T K t ; AXAXAXAXAXAXAXO h x M U ! N 5 AX",
"AXAXAXAXAXAXAXAXAXAXAXy I n # AXAXAXAXAXAXAXAXAXAXAX: e D A w AX",
"AXAXAXAXAXAXAXAXAXAXAX- f y i AXAXAXAXAXAXAXAXAXAXAXAX> y p = AX",
"AXAXAXAXAXAXAXAXAXAXAX      AXAXAXAXAXAXAXAXAXAXAXAXAXAX      AX",
"AXAXAXAXAXAXAXAXAXAXAXAXAXAXAXAXAXAXAXAXAXAXAXAXAXAXAXAXAXAXAXAX",
"AXAXAXAXAXAXAXAXAXAXAXAXAXAXAXAXAXAXAXAXAXAXAXAXAXAXAXAXAXAXAXAX",
"AXAXAXAXAXAXAXAXAXAXAXAXAXAXAXAXAXAXAXAXAXAXAXAXAXAXAXAXAXAXAXAX"
};
