/* XPM */
static char *result[] = {
/* columns rows colors chars-per-pixel */
"32 32 142 2 ",
"   c black",
".  c #010000",
"X  c #000100",
"o  c #000001",
"O  c #010001",
"+  c #020100",
"@  c #000200",
"#  c #010200",
"$  c #020200",
"%  c #030300",
"&  c #000002",
"*  c #020002",
"=  c #040300",
"-  c #040400",
";  c #040601",
":  c #060600",
">  c #070601",
",  c #070402",
"<  c #020004",
"1  c #030005",
"2  c #060104",
"3  c #060005",
"4  c #050007",
"5  c #090106",
"6  c #0B0307",
"7  c #0A0902",
"8  c #0B0902",
"9  c #0F0903",
"0  c #0D0A02",
"q  c #0D0308",
"w  c #0C000B",
"e  c #170E04",
"r  c #12040B",
"t  c #14020D",
"y  c #101303",
"u  c #171707",
"i  c #1B1204",
"p  c #1C1106",
"a  c #1F1107",
"s  c #1E1306",
"d  c #1E1405",
"f  c #1F1405",
"g  c #190210",
"h  c #180310",
"j  c #1C0511",
"k  c #241409",
"l  c #251409",
"z  c #2A170A",
"x  c #251F0D",
"c  c #331C0D",
"v  c #371E0C",
"b  c #210714",
"n  c #39200E",
"m  c #3E220E",
"M  c #2B2310",
"N  c #3F2310",
"B  c #472811",
"V  c #4A2912",
"C  c #4A2913",
"Z  c #4B2A13",
"A  c #412F1B",
"S  c #502C14",
"D  c #542E15",
"F  c #542F15",
"G  c #552F15",
"H  c #563016",
"J  c #573016",
"K  c #583116",
"L  c #593116",
"P  c #54331A",
"I  c #5D381D",
"U  c #603B1E",
"Y  c #4F3821",
"T  c #503520",
"R  c #5C3C25",
"E  c #6D4222",
"W  c #664629",
"Q  c #6A4A2C",
"!  c #724D2E",
"~  c #765131",
"^  c #785133",
"/  c #885028",
"(  c #88542A",
")  c #8D582C",
"_  c #92562B",
"`  c #91592C",
"'  c #925A2C",
"]  c #94592F",
"[  c #955C2E",
"{  c #995A2E",
"}  c #995E2F",
"|  c #815736",
" . c #9D5F32",
".. c #A05F30",
"X. c #9F6032",
"o. c #9E6232",
"O. c #A26332",
"+. c #A46432",
"@. c #A46334",
"#. c #A56434",
"$. c #A76634",
"%. c #B46D39",
"&. c #B76E39",
"*. c #B26F3D",
"=. c #BD733C",
"-. c #C3763E",
";. c #C6783E",
":. c #C6783F",
">. c #BE7641",
",. c #C57A43",
"<. c #C97A40",
"1. c #CB7B40",
"2. c #C97C43",
"3. c #D07D41",
"4. c #D27F42",
"5. c #D48042",
"6. c #D68144",
"7. c #D78244",
"8. c #D88244",
"9. c #D88345",
"0. c #D98345",
"q. c #DB8445",
"w. c #D98446",
"e. c #DB8546",
"r. c #DA8547",
"t. c #DC8545",
"y. c #DC8546",
"u. c #DD8646",
"i. c #DE8646",
"p. c #DF8746",
"a. c #E18847",
"s. c #E48A48",
"d. c #E58A48",
"f. c #E58B48",
"g. c #E58B49",
"h. c #E68B49",
"j. c #E98D49",
"k. c #EA8D4A",
"l. c #EA8E4A",
"z. c #EC8F4B",
"x. c #ED904B",
"c. c #74C857",
/* pixels */
"c.c.c.c.c.c.c.c.c.c.c.c.c.c.c.c.c.c.c.c.c.c.c.c.c.c.c.c.c.c.c.c.",
"c.c.c.c.c.c.c.c.c.c.c.c.c.c.c.c.c.c.c.c.c.c.c.c.c.c.c.c.c.c.c.c.",
"c.c.c.c.c.c.c.c.c.c.c.c.c.c.c.c.c.c.c.c.c.c.c.c.c.c.c.c.c.c.c.c.",
"c.c.c.c.c.c.c.c.c.c.c.c.c.c.c.c.c.c.c.c.c.c.c.c.c.c.c.c.c.c.c.c.",
"c.c.c.c.c.c.c.c.c.c.c.c.g h c.c.c.c.e e c.c.c.c.c.c.c.c.c.c.c.c.",
"c.c.c.c.c.c.c.c.c.c.c.* x u t c.c.e y M   c.c.c.c.c.c.c.c.c.c.c.",
"c.c.c.c.c.c.c.c.c.c.c.3 Q Y 4 c.c.w A ~ * c.c.c.c.c.c.c.c.c.c.c.",
"c.c.c.c.c.c.c.c.c.c.c.3 W R + > > . T ! * c.c.c.c.c.c.c.c.c.c.c.",
"c.c.c.c.c.c.c.c.c.c.c.< ) e.:.;.;.:.9.o.& c.c.c.c.c.c.c.c.c.c.c.",
"c.c.c.c.c.c.c.c.c.c.c.< ' k.p.i.i.p.j.+.& c.c.c.c.c.c.c.c.c.c.c.",
"c.c.c.c.c.c.c.c.c.c.c.< ` g.7.7.7.7.s.O.& c.c.c.c.c.c.c.c.c.c.c.",
"c.c.c.c.c.c.c.c.c.c.c.< [ z.u.u.u.u.l.$.o c.c.c.c.c.c.c.c.c.c.c.",
"c.c.c.c.c.c.c.c.c.c.c.1 ( 0.1.1.1.1.7.} & c.c.c.c.c.c.c.c.c.c.c.",
"c.c.c.c.c.c.c.c.c.c.c.q @ , , , , , , # 2 c.c.c.c.c.c.c.c.c.c.c.",
"c.c.c.c.c.c.c.c.c.c.b   U X.] ] ] ]  .E   j c.c.c.c.c.c.c.c.c.c.",
"c.c.c.c.c.c.c.c.c.c.  P -.x.d.d.d.d.z.1.I X c.c.c.c.c.c.c.c.c.c.",
"c.c.c.c.c.c.c.c.c.c.- 4.f.6.7.7.7.7.6.a.i.0 c.c.c.c.c.c.c.c.c.c.",
"c.c.c.c.c.c.c.c.c.c.= =.i.7.7.7.7.7.7.y.<.8 c.c.c.c.c.c.c.c.c.c.",
"c.c.c.c.c.c.c.c.c.c.# ^ ,.t.7.7.7.7.q.2.| ; c.c.c.c.c.c.c.c.c.c.",
"c.c.c.c.c.c.c.c.c.c.% *.r.8.7.7.7.7.8.w.>.7 c.c.c.c.c.c.c.c.c.c.",
"c.c.c.c.c.c.c.c.c.c.$ / 3.h.s.s.s.s.h.5._ : c.c.c.c.c.c.c.c.c.c.",
"c.c.c.c.c.c.c.c.c.c.  v { &.@.#.#.@.%...m X c.c.c.c.c.c.c.c.c.c.",
"c.c.c.c.c.c.c.c.c.c.X B G l         a D Z @ c.c.c.c.c.c.c.c.c.c.",
"c.c.c.c.c.c.c.c.c.c.X V L z         k H Z @ c.c.c.c.c.c.c.c.c.c.",
"c.c.c.c.c.c.c.c.c.c.  9 C c     c.e s J Z @ c.c.c.c.c.c.c.c.c.c.",
"c.c.c.c.c.c.c.c.c.c.e & p e 5 c.c.e i K S @ c.c.c.c.c.c.c.c.c.c.",
"c.c.c.c.c.c.c.c.c.c.c.6     e c.c.e d F n X c.c.c.c.c.c.c.c.c.c.",
"c.c.c.c.c.c.c.c.c.c.c.r O   e c.c.e f N     c.c.c.c.c.c.c.c.c.c.",
"c.c.c.c.c.c.c.c.c.c.c.c.c.c.c.c.c.c.  X   c.c.c.c.c.c.c.c.c.c.c.",
"c.c.c.c.c.c.c.c.c.c.c.c.c.c.c.c.c.c.c.c.c.c.c.c.c.c.c.c.c.c.c.c.",
"c.c.c.c.c.c.c.c.c.c.c.c.c.c.c.c.c.c.c.c.c.c.c.c.c.c.c.c.c.c.c.c.",
"c.c.c.c.c.c.c.c.c.c.c.c.c.c.c.c.c.c.c.c.c.c.c.c.c.c.c.c.c.c.c.c."
};
