/* XPM */
static char *result[] = {
/* columns rows colors chars-per-pixel */
"32 32 151 2 ",
"   c black",
".  c #000100",
"X  c #000001",
"o  c #010001",
"O  c #000101",
"+  c #010101",
"@  c #000200",
"#  c #030301",
"$  c #010003",
"%  c #030302",
"&  c #040300",
"*  c #050302",
"=  c #000400",
"-  c #000500",
";  c #020400",
":  c #030400",
">  c #060402",
",  c #060004",
"<  c #040006",
"1  c #050007",
"2  c #0B0207",
"3  c #0B0901",
"4  c #0B0B00",
"5  c #0B0802",
"6  c #0F0B02",
"7  c #0B0C00",
"8  c #070008",
"9  c #080008",
"0  c #0D0209",
"q  c #0F010A",
"w  c #0F010B",
"e  c #0F020B",
"r  c #150F02",
"t  c #140F04",
"y  c #180F05",
"u  c #190E06",
"i  c #11030B",
"p  c #13040C",
"a  c #14050C",
"s  c #15050D",
"d  c #19060F",
"f  c #171102",
"g  c #171003",
"h  c #161005",
"j  c #171105",
"k  c #191003",
"l  c #181103",
"z  c #181004",
"x  c #1A1006",
"c  c #1E1108",
"v  c #1D1208",
"b  c #190113",
"n  c #1A0610",
"m  c #2B180A",
"M  c #2F1A0C",
"N  c #2F1A0D",
"B  c #2F1E0C",
"V  c #311B0A",
"C  c #301C0A",
"Z  c #321E0A",
"A  c #36200C",
"S  c #39200F",
"D  c #3C220F",
"F  c #412510",
"G  c #412511",
"H  c #432511",
"J  c #442510",
"K  c #442711",
"L  c #452612",
"P  c #472811",
"I  c #462A14",
"U  c #4B2B13",
"Y  c #4B2F17",
"T  c #4E2C14",
"R  c #522E14",
"E  c #532E15",
"W  c #542F15",
"Q  c #552F15",
"!  c #563015",
"~  c #563016",
"^  c #573016",
"/  c #5A3217",
"(  c #54331A",
")  c #613D22",
"_  c #643D20",
"`  c #774826",
"'  c #794824",
"]  c #7E4E25",
"[  c #704729",
"{  c #774E2F",
"}  c #7B4E2D",
"|  c #775133",
" . c #7B5335",
".. c #7D5434",
"X. c #815027",
"o. c #91562B",
"O. c #95582D",
"+. c #965B2F",
"@. c #975B2F",
"#. c #955C2C",
"$. c #805636",
"%. c #855A39",
"&. c #865A3A",
"*. c #865B3A",
"=. c #885B39",
"-. c #885C3B",
";. c #8B5D3B",
":. c #8C5E3B",
">. c #9E5F32",
",. c #A16133",
"<. c #A76333",
"1. c #A46334",
"2. c #A56434",
"3. c #AC6835",
"4. c #AE6C3B",
"5. c #A86B3D",
"6. c #B16C37",
"7. c #B26C38",
"8. c #B46E38",
"9. c #B96F3A",
"0. c #BB713B",
"q. c #BD743C",
"w. c #BE743D",
"e. c #C2763D",
"r. c #C97A3E",
"t. c #CB7A3F",
"y. c #A56B41",
"u. c #A96D41",
"i. c #BD7641",
"p. c #BE7845",
"a. c #D27F42",
"s. c #D58143",
"d. c #D68144",
"f. c #D68244",
"g. c #D78244",
"h. c #DB8445",
"j. c #DD8646",
"k. c #DE8646",
"l. c #DF8747",
"z. c #D9874A",
"x. c #E08645",
"c. c #E18847",
"v. c #E58A47",
"b. c #E48A48",
"n. c #E58A48",
"m. c #E58B49",
"M. c #E68B49",
"N. c #E88C49",
"B. c #EB8E4A",
"V. c #EE904B",
"C. c None",
/* pixels */
"C.C.C.C.C.C.C.C.C.C.C.C.C.C.C.C.C.C.C.C.C.C.C.C.C.C.C.C.C.C.C.C.",
"C.C.C.C.C.C.C.C.C.C.C.C.C.C.C.C.C.C.C.C.C.C.C.C.C.C.C.C.C.C.C.C.",
"C.C.C.C.C.C.C.C.C.C.C.C.C.C.C.C.C.C.C.C.C.C.C.C.C.C.C.C.C.C.C.C.",
"C.C.C.C.C.C.C.C.C.C.C.C.C.C.C.C.C.C.C.C.C.C.C.C.C.C.C.C.C.C.C.C.",
"C.C.C.C.C.C.C.C.C.C.C.    C.C.C.C.    C.C.C.C.C.C.C.C.C.C.C.C.C.",
"C.C.C.C.C.C.C.C.C.C.2 7 4 0 C.C.  - f   C.C.C.C.C.C.C.C.C.C.C.C.",
"C.C.C.C.C.C.C.C.C.C.e Z C < C.C.b k P o C.C.C.C.C.C.C.C.C.C.C.C.",
"C.C.C.C.C.C.C.C.C.C.w A G > ; ; # N U o C.C.C.C.C.C.C.C.C.C.C.C.",
"C.C.C.C.C.C.C.C.C.C.8 X.v.w...| 4.x.6.  C.C.C.C.C.C.C.C.C.C.C.C.",
"C.C.C.C.C.C.C.C.C.C.i 6 ) u.:.;.y.} v o C.C.C.C.C.C.C.C.C.C.C.C.",
"C.C.C.C.C.C.C.C.C.C.q B [ *.=.=.-.{ I X C.C.C.C.C.C.C.C.C.C.C.C.",
"C.C.C.C.C.C.C.C.C.C.1 #.z.&.:.:.%.p.r.  C.C.C.C.C.C.C.C.C.C.C.C.",
"C.C.C.C.C.C.C.C.C.C.9 ] i. .$.$. .5.3.  C.C.C.C.C.C.C.C.C.C.C.C.",
"C.C.C.C.C.C.C.C.C.C.s . * O + + O % & o C.C.C.C.C.C.C.C.C.C.C.C.",
"C.C.C.C.C.C.C.C.C.    ( ,.@.+.+.@.>.`     C.C.C.C.C.C.C.C.C.C.C.",
"C.C.C.C.C.C.C.C.C.  Y 0.V.n.n.n.n.B.a._ = C.C.C.C.C.C.C.C.C.C.C.",
"C.C.C.C.C.C.C.C.C.  e.N.d.g.g.g.g.f.k.n.j C.C.C.C.C.C.C.C.C.C.C.",
"C.C.C.C.C.C.C.C.C.  8.c.g.g.g.g.g.g.h.s.t C.C.C.C.C.C.C.C.C.C.C.",
"C.C.C.C.C.C.C.C.C.  8.c.g.g.g.g.g.g.h.s.t C.C.C.C.C.C.C.C.C.C.C.",
"C.C.C.C.C.C.C.C.C.  q.m.f.g.g.g.g.f.j.l.h C.C.C.C.C.C.C.C.C.C.C.",
"C.C.C.C.C.C.C.C.C.  ' t.M.b.b.b.b.M.s.O.3 C.C.C.C.C.C.C.C.C.C.C.",
"C.C.C.C.C.C.C.C.C.  V o.9.1.2.2.1.7.<.J @ C.C.C.C.C.C.C.C.C.C.C.",
"C.C.C.C.C.C.C.C.C.  F ! m         u R T ; C.C.C.C.C.C.C.C.C.C.C.",
"C.C.C.C.C.C.C.C.C.  K / M         c Q T ; C.C.C.C.C.C.C.C.C.C.C.",
"C.C.C.C.C.C.C.C.C.  5 L S     C.  z ~ T ; C.C.C.C.C.C.C.C.C.C.C.",
"C.C.C.C.C.C.C.C.C.C.$ y x , C.C.C.r ^ E : C.C.C.C.C.C.C.C.C.C.C.",
"C.C.C.C.C.C.C.C.C.C.p     a C.C.C.g W D @ C.C.C.C.C.C.C.C.C.C.C.",
"C.C.C.C.C.C.C.C.C.C.d     n C.C.C.l H     C.C.C.C.C.C.C.C.C.C.C.",
"C.C.C.C.C.C.C.C.C.C.C.C.C.C.C.C.C.  .   C.C.C.C.C.C.C.C.C.C.C.C.",
"C.C.C.C.C.C.C.C.C.C.C.C.C.C.C.C.C.C.C.C.C.C.C.C.C.C.C.C.C.C.C.C.",
"C.C.C.C.C.C.C.C.C.C.C.C.C.C.C.C.C.C.C.C.C.C.C.C.C.C.C.C.C.C.C.C.",
"C.C.C.C.C.C.C.C.C.C.C.C.C.C.C.C.C.C.C.C.C.C.C.C.C.C.C.C.C.C.C.C."
};
