/* XPM */
static char *result[] = {
/* columns rows colors chars-per-pixel */
"32 32 188 2 ",
"   c #7C7353",
".  c #7D7353",
"X  c #787957",
"o  c #7B7A58",
"O  c #717D64",
"+  c #7C7965",
"@  c #935942",
"#  c #915A43",
"$  c #965C45",
"%  c #965D45",
"&  c #955D46",
"*  c #975D46",
"=  c #975E46",
"-  c #975E47",
";  c #985E47",
":  c #9A5F48",
">  c #8B654F",
",  c #826B4E",
"<  c #826D4F",
"1  c #8A6A4E",
"2  c #8E684D",
"3  c #90634D",
"4  c #9A6048",
"5  c #9B6149",
"6  c #9D634B",
"7  c #9E634B",
"8  c #9C654C",
"9  c #9E674E",
"0  c #876651",
"q  c #8E6E52",
"w  c #8D6954",
"e  c #8D6D57",
"r  c #9A6D52",
"t  c #8D7658",
"y  c #8C7758",
"u  c #867D5C",
"i  c #8B7859",
"p  c #897A5A",
"a  c #947053",
"s  c #917154",
"d  c #907456",
"f  c #A36346",
"g  c #A0654D",
"h  c #A1654D",
"j  c #A3664D",
"k  c #A4674D",
"l  c #A5674D",
"z  c #AF6A49",
"x  c #A8684C",
"c  c #A9694C",
"v  c #AA694C",
"b  c #AB6A4C",
"n  c #B06B4A",
"m  c #B06C4B",
"M  c #B16C4B",
"N  c #B46D4B",
"B  c #B46E4B",
"V  c #B56E4B",
"C  c #B7704C",
"Z  c #B9724D",
"A  c #BA724D",
"S  c #BE764F",
"D  c #A97051",
"F  c #AC7A5A",
"G  c #B97551",
"H  c #897F6A",
"J  c #917B66",
"K  c #C57C52",
"L  c #C67D52",
"P  c #C77D53",
"I  c #C87E53",
"U  c #77825E",
"Y  c #678F66",
"T  c #6E8C60",
"R  c #7F8360",
"E  c #778A64",
"W  c #75806D",
"Q  c #679167",
"!  c #6C9261",
"~  c #6D936A",
"^  c #69976C",
"/  c #6A966C",
"(  c #669A6E",
")  c #649C6F",
"_  c #709168",
"`  c #7A986B",
"'  c #728270",
"]  c #708775",
"[  c #748F7D",
"{  c #5EAA6D",
"}  c #5BB76F",
"|  c #5FB96C",
" . c #5CB86E",
".. c #4FAF7B",
"X. c #5AA071",
"o. c #5EA172",
"O. c #5AA575",
"+. c #58A776",
"@. c #53AB77",
"#. c #54A977",
"$. c #59AC71",
"%. c #54AB78",
"&. c #50AE7A",
"*. c #55B375",
"=. c #5BB770",
"-. c #58B572",
";. c #59B672",
":. c #51B179",
">. c #50B07A",
",. c #6FAE6A",
"<. c #63BD67",
"1. c #66BE65",
"2. c #66BF65",
"3. c #64BD66",
"4. c #65BE66",
"5. c #61BB69",
"6. c #62BA69",
"7. c #61BB6A",
"8. c #61BC69",
"9. c #63BC68",
"0. c #6DC35E",
"q. c #6EC45C",
"w. c #6EC45D",
"e. c #74C857",
"r. c #73C758",
"t. c #72C759",
"y. c #70C55B",
"u. c #71C65A",
"i. c #70C65B",
"p. c #6AC161",
"a. c #69C062",
"s. c #68C063",
"d. c #999269",
"f. c #888471",
"g. c #878875",
"h. c #CA8054",
"j. c #3A8FA2",
"k. c #3C90A1",
"l. c #3F99A1",
"z. c #388EB3",
"x. c #3991B8",
"c. c #3A93B8",
"v. c #659584",
"b. c #649F8E",
"n. c #5CA293",
"m. c #54AD9F",
"M. c #45A4A5",
"N. c #48AAA8",
"B. c #49ACA8",
"V. c #54AEA0",
"C. c #54AFA0",
"Z. c #54AFA1",
"A. c #4BB1AB",
"S. c #4CB1AA",
"D. c #4DB3AC",
"F. c #4DB5AD",
"G. c #54B0A2",
"H. c #55B1A3",
"J. c #55B2A4",
"K. c #55B3A4",
"L. c #55B5A6",
"P. c #55B6A7",
"I. c #55B7A7",
"U. c #56BCAC",
"Y. c #52BFB2",
"T. c #53C2B3",
"R. c #57C8B8",
"E. c #58CAB8",
"W. c #58CAB9",
"Q. c #58CBB9",
"!. c #70C5B8",
"~. c #79CCBF",
"^. c #41A5D7",
"/. c #41A6D7",
"(. c #43A9DD",
"). c #44AFE5",
"_. c #45B0E6",
"`. c #46B3EA",
"'. c #46B4EB",
"]. c #78D3C5",
"[. c #839D8C",
"{. c #839E8D",
"}. c #919582",
"|. c #90A28F",
" X c #80DBCD",
".X c #91DCD0",
"XX c #87E3D5",
"oX c #A3EBE0",
/* pixels */
"e.e.e.e.e.e.e.e.e.e.e.e.e.e.e.e.e.e.e.e.e.e.e.e.e.e.e.e.e.e.e.e.",
"e.e.e.e.e.e.e.e.e.e.e.e.e.s.e.e.e.e.e.e.e.e.e.e.e.e.e.e.e.e.e.e.",
"e.e.e.e.e.e.e.e.e.e.e...w.X.q.y.1.<.{ ..w.e.e.e.e.e.e.e.e.e.e.e.",
"e.e.e.e.e.e.e.e.e.e.0.@ %.h O.< .._ t g # ..e.e.e.e.e.e.e.e.e.e.",
"e.e.e.e.e.e.e.e.e.e...N g V h.K h.V m g V g ..e.e.e.e.e.e.e.e.e.",
"e.e.e.e.e.e.e.e.8...L B g V I h.h.V m g V 9 @.e.e.e.e.e.e.e.e.e.",
"e.e.e.e.e.e.e. .E D P B g V C h.S V m g V h.r , a.e.e.e.e.e.e.e.",
"e.e.e.e.e.e.=.q b h.Z g g l N V V j g g g A h.M 1 3.e.e.e.e.e.e.",
"e.e.e.e.e.e.1.i k V x - [.* g x j g * {.* c V v ) 2.e.e.e.e.e.e.",
"e.e.e.e.e.e.:.s g g 4 g.m.].4 4 4 f..Xm.}.4 g g U =.e.e.e.e.e.e.",
"e.e.e.e.e.e.  8 * e ~.V.Q.m. XoXXXm.K.Q.m.!.J 5 a T e.e.e.e.e.e.",
"e.e.e.e.e.i.#.5 |.m.Z.Q.F.Q.J.Z.V.Q.Y./.Q.G.m.w % &.t.e.e.e.e.e.",
"e.e.e.e.e.e.*.g ; I.Q.'.'.'.D.E.Q.'.'.'._.Q.C.7 g 8.e.e.e.e.e.e.",
"e.e.e.e.e.e.e.u f I.'.'.'.'.'.'.'.'.'.'.'.`.Z.z ^ e.e.e.e.e.e.e.",
"e.e.e.e.e.e...u f I.'.'.'.'.'.'.'.'.'.'.'.'.C.z / ..e.e.e.e.e.e.",
"e.e.e.e.e.e.;.p W P.'.'.'.'.'.'.'.'.'.'.'.'.V.> ( 9.e.e.e.e.e.e.",
"e.e.e.e.e.e.X = n.M.'.'.'.'.'.'.'.'.'.'.'.'.R.v.: Y e.e.e.e.e.e.",
"e.e.e.e.e.e.>.2 b.S.'.'.'.'.'.'.'.'.'.'.'.'.Q.] o -.e.e.e.e.e.e.",
"e.e.e.e.e.} X g + L.x.'.'.'.'.'.'.'.'.'.'.z.m.3 g ! 7.e.e.e.e.e.",
"e.e.e.e.e.e.;.p f P.A.'.'.'.'.'.'.'.'.'.'.Q.V.n ( 9.e.e.e.e.e.e.",
"e.e.e.e.e.e.*.5 f I.B.'.'.'.'.'.'.'.'.'.'.Q.C.z & 5.e.e.e.e.e.e.",
"e.e.e.e.e.e.e.u ; I.N.'.'.'.'.'.'.'.'.'.'.E.Z.6 ^ e.e.e.e.e.e.e.",
"e.e.e.e.e.e...5 ' Q.'.'.'.'.'.'.'.'.'.'.'.'.W.0 $ ..e.e.e.e.e.e.",
"e.e.e.e.e.e.$.. U.l.'.'.'.'.'.'.'.'.'.'.'.'.T.H.Q 6.e.e.e.e.e.e.",
"e.e.e.e.e.e.0.d.[ Q.'.'.'.'.'.'.'.'.'.'.'.'.Q.H ` u.e.e.e.e.e.e.",
"e.e.e.e.e.e.e.1.o.F j.'.'.'.'.'.'.'.'.'.'.k.G ~ 1.e.e.e.e.e.e.e.",
"e.e.e.e.e.e.e.e.8.,.O '.'.'.'.'.'.'.'.'.'.R | u.e.e.e.e.e.e.e.e.",
"e.e.e.e.e.e.e.e.e.p.d '.'.'.'.'.'.'.'.'.`.y r.e.e.e.e.e.e.e.e.e.",
"e.e.e.e.e.e.e.e.e.e.q...'.'.'.(.).).'.^...e.e.e.e.e.e.e.e.e.e.e.",
"e.e.e.e.e.e.e.e.e.e.e.t..._.+.y .._ c...e.e.e.e.e.e.e.e.e.e.e.e.",
"e.e.e.e.e.e.e.e.e.e.e.e.e...e.e.4.4.-.e.e.e.e.e.e.e.e.e.e.e.e.e.",
"e.e.e.e.e.e.e.e.e.e.e.e.e.t.e.e.e.e.e.e.e.e.e.e.e.e.e.e.e.e.e.e."
};
