/* XPM */
static char *result[] = {
/* columns rows colors chars-per-pixel */
"32 32 103 2 ",
"   c #280E03",
".  c #300F01",
"X  c #300F02",
"o  c #310F03",
"O  c #291C07",
"+  c #291E08",
"@  c #231D19",
"#  c #382A0D",
"$  c #461805",
"%  c #4A1905",
"&  c #401E0A",
"*  c #52250B",
"=  c #5C260B",
"-  c #45310F",
";  c #493610",
":  c #4C3610",
">  c #623110",
",  c #6D3C11",
"<  c #594212",
"1  c #6F5015",
"2  c #735417",
"3  c #744529",
"4  c #795E2C",
"5  c #822B07",
"6  c #962F07",
"7  c #902F08",
"8  c #A3390B",
"9  c #BE3F0B",
"0  c #B1420F",
"q  c #B34511",
"w  c #A55316",
"e  c #AD541B",
"r  c #BD571C",
"t  c #966E1F",
"y  c #B46B2C",
"u  c #C24F16",
"i  c #C94F14",
"p  c #C05D1D",
"a  c #C25F1F",
"s  c #D25114",
"d  c #D35315",
"f  c #D35416",
"g  c #D45516",
"h  c #D75919",
"j  c #D75A19",
"k  c #D75A1A",
"l  c #D95E1B",
"z  c #D95E1C",
"x  c #D95E1D",
"c  c #DA5F1D",
"v  c #D86520",
"b  c #DD6720",
"n  c #DE6A22",
"m  c #DF6A22",
"M  c #DF6B23",
"N  c #E06C23",
"B  c #E06E22",
"V  c #E16F24",
"C  c #E67A26",
"Z  c #E67D27",
"A  c #E77D27",
"S  c #B78527",
"D  c #CB932B",
"F  c #D69D2F",
"G  c #D99D2D",
"H  c #DA9E2D",
"J  c #DC9F2D",
"K  c #E48328",
"L  c #EF922C",
"P  c #F2982D",
"I  c #F49D2E",
"U  c #E9A931",
"Y  c #F7A430",
"T  c #F7A530",
"R  c #F9AA32",
"E  c #FAAC31",
"W  c #FAAD31",
"Q  c #FBAF32",
"!  c #F8B432",
"~  c #FDB734",
"^  c #FEB834",
"/  c #FFB834",
"(  c #FFB934",
")  c #FFB935",
"_  c #FFBA35",
"`  c #FFBA36",
"'  c #FFBA37",
"]  c #FEB939",
"[  c #FFBA38",
"{  c #FFBB39",
"}  c #FFBB3B",
"|  c #FFBC3B",
" . c #FFBC3E",
".. c #BC956B",
"X. c #F4C266",
"o. c #F7C568",
"O. c #FFCE72",
"+. c #FED17C",
"@. c #FFD27C",
"#. c #FFE8BC",
"$. c #FFE8BD",
"%. c #FFF9EF",
"&. c None",
/* pixels */
"&.&.&.&.&.&.&.&.&.&.&.&.&.&.&.&.&.&.&.&.&.&.&.&.&.&.&.&.&.&.&.&.",
"&.&.&.&.&.&.&.&.&.&.&.&.&.&.&.&.&.&.&.&.&.&.&.&.&.&.&.&.&.&.&.&.",
"&.&.&.&.&.&.&.&.&.&.&.&.&.&.&.&.&.&.&.&.&.&.&.&.&.&.&.&.&.&.&.&.",
"&.&.&.&.&.&.&.&.&.&.&.&.&.&.&.&.&.&.&.&.&.&.&.&.&.&.&.&.&.&.&.&.",
"&.&.&.&.&.&.&.&.&.&.&.&.&.&.&.&.&.&.&.&.&.&.&.&.&.&.&.&.&.&.&.&.",
"&.&.&.&.&.&.&.&.&.&.&.&.&.&.&.&.&.&.&.&.&.&.&.&.&.&.&.&.&.&.&.&.",
"&.&.&.&.&.&.&.&.&.&.&.&.&.&.&.&.&.&.&.&.&.&.&.&.&.&.&.&.&.&.&.&.",
"&.&.&.&.&.&.&.&.&.&.&.&.&.&.&.&.&.&.&.&.&.&.&.&.&.&.&.&.&.&.&.&.",
"&.&.&.&.&.&.&.&.&.&.&.&.&.&.&.&.&.&.&.&.&.&.&.&.&.&.&.&.&.&.&.&.",
"&.&.&.&.&.&.&.&.&.&.&.&.&.&.&.< D G H J J 4 3 &.&.&.&.&.&.&.&.&.",
"&.&.&.&.&.&.&.&.&.&.&.&.&.: F ~ ` ( ' ` ( ! , X &.&.&.&.&.&.&.&.",
"&.&.&.&.&.&.&.&.&.&.&.&.- X.$. ._ ( ( ( ( ` K & &.&.&.&.&.&.&.&.",
"&.&.&.&.&.&.&.&.&.&.&.+ o.%.@.` ( ( ( ( ( ` W e &.&.&.&.&.&.&.&.",
"&.&.&.&.&.&.&.&.&.&.&.S #.O.' ( ) } ( ( ` ` Y p &.&.&.&.&.&.&.&.",
"&.&.&.&.&.&.&.&.&.&.# +.{ ) ( ( ( ( ( ( ) ) A r &.&.&.&.&.&.&.&.",
"&.&.&.&.&.&.&.&.&.&.t | ( ) ) ( ( ' ` ( ) R B 0 &.&.&.&.&.&.&.&.",
"&.&.&.&.&.&.&.&.&.O U _ ( ) ` ( ( ) ) ( ^ C k 8 &.&.&.&.&.&.&.&.",
"&.&.&.&.&.&.&.&.&.; ) ) ( ( [ ( ( ( ` ) P b d % &.&.&.&.&.&.&.&.",
"&.&.&.&.&.&.&.&.&.2 ( ` ` ( ` ( ( ( / I M z i o &.&.&.&.&.&.&.&.",
"&.&.&.&.&.&.&.&.&.J ( ( ) ) ( ( ( / I N x f 7 &.&.&.&.&.&.&.&.&.",
"&.&.&.&.&.&.&.&.&.J ( ( ) ) ( _ ] P n c g 6 &.&.&.&.&.&.&.&.&.&.",
"&.&.&.&.&.&.&.&.&.1 ( ` ` ( Q T C l j f 6 &.&.&.&.&.&.&.&.&.&.&.",
"&.&.&.&.&.&.&.&.&...L E Y Z V m j s 9 $ &.&.&.&.&.&.&.&.&.&.&.&.",
"&.&.&.&.&.&.&.&.@ y w > a v h u q 5 . &.&.&.&.&.&.&.&.&.&.&.&.&.",
"&.&.&.&.&.&.&.&.&.&.&.&.&.* =   &.&.&.&.&.&.&.&.&.&.&.&.&.&.&.&.",
"&.&.&.&.&.&.&.&.&.&.&.&.&.&.&.&.&.&.&.&.&.&.&.&.&.&.&.&.&.&.&.&.",
"&.&.&.&.&.&.&.&.&.&.&.&.&.&.&.&.&.&.&.&.&.&.&.&.&.&.&.&.&.&.&.&.",
"&.&.&.&.&.&.&.&.&.&.&.&.&.&.&.&.&.&.&.&.&.&.&.&.&.&.&.&.&.&.&.&.",
"&.&.&.&.&.&.&.&.&.&.&.&.&.&.&.&.&.&.&.&.&.&.&.&.&.&.&.&.&.&.&.&.",
"&.&.&.&.&.&.&.&.&.&.&.&.&.&.&.&.&.&.&.&.&.&.&.&.&.&.&.&.&.&.&.&.",
"&.&.&.&.&.&.&.&.&.&.&.&.&.&.&.&.&.&.&.&.&.&.&.&.&.&.&.&.&.&.&.&.",
"&.&.&.&.&.&.&.&.&.&.&.&.&.&.&.&.&.&.&.&.&.&.&.&.&.&.&.&.&.&.&.&."
};
