/* XPM */
static char *result[] = {
/* columns rows colors chars-per-pixel */
"32 32 153 2 ",
"   c #549A4C",
".  c #529F5D",
"X  c #5DA753",
"o  c #58A457",
"O  c #5EA850",
"+  c #5EAA50",
"@  c #5EA852",
"#  c #54A259",
"$  c #55A259",
"%  c #57A358",
"&  c #5BAC5F",
"*  c #5FAD5C",
"=  c #5EAF5C",
"-  c #63AC4B",
";  c #62AB4C",
":  c #61AA4E",
">  c #61AB4E",
",  c #60AF5B",
"<  c #63B357",
"1  c #65B355",
"2  c #65B455",
"3  c #66B454",
"4  c #69B651",
"5  c #68B552",
"6  c #68B553",
"7  c #68B652",
"8  c #6AB850",
"9  c #6AB851",
"0  c #61B159",
"q  c #62B258",
"w  c #63B258",
"e  c #479967",
"r  c #4B9C62",
"t  c #4A9C63",
"y  c #4B9C63",
"u  c #4C9D61",
"i  c #44966A",
"p  c #459869",
"a  c #479C73",
"s  c #479874",
"d  c #499D71",
"f  c #4BA26D",
"g  c #4DA46C",
"h  c #58AA62",
"j  c #53A368",
"k  c #5EB56D",
"l  c #5EB56E",
"z  c #5EB46F",
"x  c #5FBA6B",
"c  c #5DB96D",
"v  c #5EB96C",
"b  c #5EB96D",
"n  c #5FBA6C",
"m  c #5CB86E",
"M  c #49A071",
"N  c #4FAE7B",
"B  c #4FAF7B",
"V  c #4FAA7D",
"C  c #4FAE7C",
"Z  c #54AF77",
"A  c #54AA79",
"S  c #52AF79",
"D  c #51AD7A",
"F  c #51AE7A",
"G  c #51AF7A",
"H  c #50AE7B",
"J  c #4FB07A",
"K  c #4FB07B",
"L  c #53B277",
"P  c #57B174",
"I  c #56B474",
"U  c #5BB370",
"Y  c #5AB271",
"T  c #59B072",
"R  c #59B172",
"E  c #59B372",
"W  c #58B373",
"Q  c #5DB270",
"!  c #5BB471",
"~  c #58B274",
"^  c #51B079",
"/  c #51B179",
"(  c #52B079",
")  c #52B179",
"_  c #53B278",
"`  c #51B07A",
"'  c #65BB66",
"]  c #64BB67",
"[  c #66BC65",
"{  c #67BF64",
"}  c #66BE65",
"|  c #66BF65",
" . c #65BC66",
".. c #64BD66",
"X. c #64BC67",
"o. c #64BD67",
"O. c #6ABF61",
"+. c #6BBF61",
"@. c #69BE62",
"#. c #69BF62",
"$. c #68BF63",
"%. c #6ABF62",
"&. c #68BD64",
"*. c #61B76A",
"=. c #61B76B",
"-. c #62B969",
";. c #63BA68",
":. c #62BB69",
">. c #61BA6A",
",. c #61BB6A",
"<. c #64B968",
"1. c #62BC68",
"2. c #63BD68",
"3. c #62BC69",
"4. c #6FC55B",
"5. c #6BC25F",
"6. c #6FC35C",
"7. c #6EC25D",
"8. c #6EC35D",
"9. c #6FC35D",
"0. c #6DC15E",
"q. c #6DC25E",
"w. c #6DC35E",
"e. c #6CC25F",
"r. c #6CC35F",
"t. c #6DC45D",
"y. c #6FC45C",
"u. c #6FC55C",
"i. c #6EC45D",
"p. c #6EC55D",
"a. c #74C857",
"s. c #73C758",
"d. c #72C659",
"f. c #72C759",
"g. c #71C55A",
"h. c #70C45B",
"j. c #70C55B",
"k. c #71C55B",
"l. c #70C65A",
"z. c #71C65A",
"x. c #71C65B",
"c. c #72C65A",
"v. c #70C45C",
"b. c #73C858",
"n. c #69C161",
"m. c #6BC060",
"M. c #6BC160",
"N. c #6AC061",
"B. c #6AC161",
"V. c #6BC260",
"C. c #69C062",
"Z. c #68C063",
"A. c #4CA481",
/* pixels */
"e % : - ; + + X $ p i . o u : - - > @ o y p r O t # : + - : O   ",
"n r.a.a.a.b.f.u.5.c m Z.i.o.f.a.a.a.s.i.1.c 2.a.3.n.a.b.a.a.a.5 ",
"a.a.a.a.a.a.a.a.a.a.a.a.a.a.a.a.a.a.a.a.a.a.a.a.a.a.a.a.a.a.a.8 ",
"a.a.a.a.a.a.a.a.a.a.a.a.a.a.a.a.a.a.a.a.a.a.a.a.a.a.a.a.a.a.a.8 ",
"T O.a.a.a.a.a.a.a.a.a.a.a.a.a.a.a.a.a.a.a.a.a.a.a.a.a.a.a.a.a.6 ",
"Y m.a.a.a.a.a.a.a.a.a.a.a.a.a.a.a.a.a.a.a.a.a.a.a.a.a.a.a.a.a.6 ",
"k #.d.a.a.a.a.a.a.a.a.a.a.a.a.a.a.a.a.a.a.a.a.a.a.a.a.a.a.a.7.* ",
"A.z q.a.a.a.a.a.a.a.a.a.a.a.a.a.a.a.a.a.a.a.a.a.a.a.a.a.a.a.*.s ",
"F } s.a.a.a.a.a.a.a.a.a.a.a.a.a.a.a.a.a.a.a.a.a.a.a.a.a.a.a.z.w ",
"N >.6.a.a.a.a.a.a.a.a.a.a.a.a.a.a.a.a.a.a.a.a.a.a.a.a.a.a.a.&.j ",
"N P [ a.a.a.a.a.a.a.a.a.a.a.a.a.a.a.a.a.a.a.a.a.a.a.a.a.a.+.U d ",
"J Z ;.a.a.a.a.a.a.a.a.a.a.a.a.a.a.a.a.a.a.a.a.a.a.a.a.a.a.<.E g ",
"/ | s.a.a.a.a.a.a.a.a.a.a.a.a.a.a.a.a.a.a.a.a.a.a.a.a.a.a.a.i.= ",
"_ Z.a.a.a.a.a.a.a.a.a.a.a.a.a.a.a.a.a.a.a.a.a.a.a.a.a.a.a.a.s.2 ",
"v r.a.a.a.a.a.a.a.a.a.a.a.a.a.a.a.a.a.a.a.a.a.a.a.a.a.a.a.a.a.7 ",
"M.l.a.a.a.a.a.a.a.a.a.a.a.a.a.a.a.a.a.a.a.a.a.a.a.a.a.a.a.a.a.9 ",
"c.s.a.a.a.a.a.a.a.a.a.a.a.a.a.a.a.a.a.a.a.a.a.a.a.a.a.a.a.a.s.4 ",
"8.d.a.a.a.a.a.a.a.a.a.a.a.a.a.a.a.a.a.a.a.a.a.a.a.a.a.a.a.a.g.1 ",
"W C.a.a.a.a.a.a.a.a.a.a.a.a.a.a.a.a.a.a.a.a.a.a.a.a.a.a.a.a.y., ",
") { a.a.a.a.a.a.a.a.a.a.a.a.a.a.a.a.a.a.a.a.a.a.a.a.a.a.a.a.z.q ",
") :.y.a.a.a.a.a.a.a.a.a.a.a.a.a.a.a.a.a.a.a.a.a.a.a.a.a.a.h.N.& ",
"K ~ [ a.a.a.a.a.a.a.a.a.a.a.a.a.a.a.a.a.a.a.a.a.a.a.a.a.a.@.R a ",
"K b r.a.a.a.a.a.a.a.a.a.a.a.a.a.a.a.a.a.a.a.a.a.a.a.a.a.a.s.,.M ",
"` ..d.a.a.a.a.a.a.a.a.a.a.a.a.a.a.a.a.a.a.a.a.a.a.a.a.a.a.a.M.h ",
"x e.a.a.a.a.a.a.a.a.a.a.a.a.a.a.a.a.a.a.a.a.a.a.a.a.a.a.a.a.h.0 ",
"4.f.a.a.a.a.a.a.a.a.a.a.a.a.a.a.a.a.a.a.a.a.a.a.a.a.a.a.a.a.z.3 ",
"z.s.a.a.a.a.a.a.a.a.a.a.a.a.a.a.a.a.a.a.a.a.a.a.a.a.a.a.a.a.a.9 ",
"{ u.a.a.a.a.a.a.a.a.a.a.a.a.a.a.a.a.a.a.a.a.a.a.a.a.a.a.a.a.a.4 ",
"p.f.a.a.a.a.a.a.a.a.a.a.a.a.a.a.a.a.a.a.a.a.a.a.a.a.a.a.a.a.a.9 ",
"4.f.a.a.a.a.a.a.s.9.6.d.s.h.s.a.a.a.a.s.j.8.y.a.v.c.a.a.a.a.a.9 ",
"o.#.y.s.j.0.h.j.B.-.;.$.N.' g.s.f.j.w.V. .-.] r.] %.6.q.s.j.t.< ",
"B V l k.<.A =.X.G C N ^ S D N.x.r.,.L ( H C H ^ H ! Q A z.,.I f "
};
