/* XPM */
static char *result[] = {
/* columns rows colors chars-per-pixel */
"32 32 164 2 ",
"   c #613635",
".  c #603937",
"X  c #664132",
"o  c #3F7B57",
"O  c #357551",
"+  c #5E6B4D",
"@  c #557152",
"#  c #6A6047",
"$  c #65644A",
"%  c #7B7C76",
"&  c #803E4F",
"*  c #813F51",
"=  c #8D5C44",
"-  c #99664A",
";  c #9E6E5D",
":  c #A6694E",
">  c #AB694E",
",  c #A56B53",
"<  c #AB6D52",
"1  c #A56F5C",
"2  c #B26E50",
"3  c #B66B5E",
"4  c #AD7254",
"5  c #A7705C",
"6  c #A9735C",
"7  c #AA7C57",
"8  c #B27455",
"9  c #BC7552",
"0  c #B37A57",
"q  c #B57958",
"w  c #BA7C5B",
"e  c #B87858",
"r  c #A4486D",
"t  c #AC5467",
"y  c #BC556F",
"u  c #AE4C72",
"i  c #B24B72",
"p  c #A25271",
"a  c #BC5176",
"s  c #906F6E",
"d  c #8F7173",
"f  c #AF6264",
"g  c #B86966",
"h  c #A67864",
"j  c #BD7068",
"k  c #BE7763",
"l  c #C07252",
"z  c #C57E56",
"x  c #CC5E6E",
"c  c #C14E74",
"v  c #C94F76",
"b  c #C35176",
"n  c #CC5276",
"m  c #C65970",
"M  c #CD5378",
"N  c #CA5A70",
"B  c #D45377",
"V  c #D45278",
"C  c #CB6A6B",
"Z  c #C66669",
"A  c #C57065",
"S  c #C57F65",
"D  c #C77B68",
"F  c #CC7969",
"G  c #3A835B",
"H  c #47825B",
"J  c #5A8B66",
"K  c #5F9E75",
"L  c #6E8D69",
"P  c #748863",
"I  c #7A8963",
"U  c #7C8969",
"Y  c #6F966B",
"T  c #629E71",
"R  c #56A27A",
"E  c #5DA375",
"W  c #61A073",
"Q  c #8A845F",
"!  c #A5875E",
"~  c #A5885E",
"^  c #828A63",
"/  c #8F8B62",
"(  c #96857F",
")  c #B3846E",
"_  c #BC8367",
"`  c #AF986C",
"'  c #AD956A",
"]  c #B58974",
"[  c #BE8C74",
"{  c #BC927B",
"}  c #C88057",
"|  c #C1815E",
" . c #CB8459",
".. c #D38658",
"X. c #D78D5D",
"o. c #C38461",
"O. c #C98464",
"+. c #CD8D64",
"@. c #CE8669",
"#. c #D08A67",
"$. c #D3816B",
"%. c #D38C69",
"&. c #DA8F6C",
"*. c #D39167",
"=. c #DB9564",
"-. c #DB966A",
";. c #D79C6E",
":. c #DE996B",
">. c #CA9577",
",. c #E29E6E",
"<. c #DFA674",
"1. c #E4A06F",
"2. c #E6A371",
"3. c #E8A674",
"4. c #E7A975",
"5. c #E8A975",
"6. c #E9AC78",
"7. c #ECB07B",
"8. c #8E7E84",
"9. c #7E8499",
"0. c #6E8AAD",
"q. c #7B89A2",
"w. c #6E8CB0",
"e. c #5C96CB",
"r. c #5897D0",
"t. c #5299D7",
"y. c #6294C5",
"u. c #958286",
"i. c #939394",
"p. c #A98881",
"a. c #B38D81",
"s. c #A39189",
"d. c #BF9681",
"f. c #BF9F8F",
"g. c #BC9D92",
"h. c #BFA697",
"j. c #BEA698",
"k. c #A4A3A2",
"l. c #C29B86",
"z. c #C5A18C",
"x. c #C3AB9C",
"c. c #C9AA98",
"v. c #D7B096",
"b. c #D0B09E",
"n. c #CCB9AC",
"m. c #C8B3A5",
"M. c #D3B5A2",
"N. c #DBC1AE",
"B. c #D5C6B9",
"V. c #DACCBD",
"C. c #DDC6B3",
"Z. c #E1CBB9",
"A. c #D4CDC4",
"S. c #DACFC4",
"D. c #D6D1C7",
"F. c #DED6CA",
"G. c #E5D4C5",
"H. c #E9D8C7",
"J. c #E1D6C8",
"K. c #ECDDCC",
"L. c #E1D9CE",
"P. c #EBE1D2",
"I. c #F1E6D6",
"U. c None",
/* pixels */
"U.U.U.U.U.U.U.U.U.U.U.U.U.U.U.U.0 U.U.U.U.U.U.U.U.U.U.U.U.U.U.U.",
"U.U.U.U.U.U.U.U.U.U.U.U.U.0 2.2.2.O.U.U.U.U.U.U.U.U.U.U.U.U.U.U.",
"U.U.U.U.U.U.U.U.U.U.U.U.4 *.O.| | :.o.U.U.U.U.U.U.U.U.U.U.U.U.U.",
"U.U.U.U.U.U.U.U.U.U.U._ 2.w  .1.:.3 +.+.U.U.U.U.U.U.U.U.U.U.U.U.",
"U.U.U.U.U.U.U.U.U.U.U.+.$.C z 1.:.m F ,.w U.U.U.U.U.U.U.U.U.U.U.",
"U.U.U.U.U.U.U.U.U.U.*.O.V V ..1.:.n B 3 -.w U.U.U.U.U.U.U.U.U.U.",
"U.U.U.U.U.U.U.U.0 ,.F M V B  .1.:.n B b n :.+.U.U.U.U.U.U.U.U.U.",
"U.U.U.U.U.U.U.0 | %.C M V B  .1.=.n B b B D -.q U.U.U.U.U.U.U.U.",
"U.U.U.U.U.U.w ,.@.M v M V B ..,.:.M V b V a A -.+.U.U.U.U.U.U.U.",
"U.U.U.U.U.U.+.o.g M v M V V  .,.:.M V b V a N j :.- U.U.U.U.U.U.",
"U.U.U.U.U.X w a u M v M V V  .,.=.B V a M a v u A = U.U.U.U.U.U.",
"U.U.U.U.U.  r a u M v M V V z :.*.M V b V a v u b * U.U.U.U.U.U.",
"U.U.U.U.U.  r b i M b V V V , < < M B b V a v u c * U.U.U.U.U.U.",
"U.U.U.U.U.  r a i v b M n A 2.2.2.O.Z b V a v u c * U.U.U.U.U.U.",
"U.U.U.U.U.  r a i v v M Z -.2.2.2.1.F b V a v u c * U.U.U.U.U.U.",
"U.U.U.U.U.  r a i M b C 2.4.......5.3.O.x a v u c & U.U.U.U.U.U.",
"U.U.U.U.U.  r a u n y -.3.,.......=.1.,.$.a n u c * U.U.U.U.U.U.",
"U.U.U.U.U.. r a i C %.1.....x.x.x. ...1.2.F b i c * U.U.U.U.U.U.",
"U.U.U.U.U.L p a f 3.4..._ n.M.h [ A.z...X.5.S t c % U.U.U.U.U.U.",
"U.U.U.U.U.K p j -.3.,...n.G.k , 1 J.V. ...5.:.@.a % U.U.U.U.U.U.",
"U.U.U.U.U.E h 2.2.....x.I.H.1 e.0.b.I.D.{ ..2.3.o.U U.U.U.U.U.U.",
"U.U.U.U.U.^ ;.5.6. .o.L.I.P.1 w.9.N.I.P.B. .=.7.1.' U.U.U.U.U.U.",
"U.U.U.U.U.^ <.....j.F.I.I.I.A.] f.I.I.I.I.A. ...5.` U.U.U.U.U.U.",
"U.U.U.U.U.^  .} ) N.d.Z.P.K.o.z | C.I.I.b.l.n.8 ..! U.U.U.U.U.U.",
"U.U.U.U.U.^  .z h d.s g.G.v.9 9 9 >.C.M.p.d c.< ..! U.U.U.U.U.U.",
"U.U.U.U.U.^  .z 6 u.t.8.w > > l > 2 e ) w.r.] < ..~ U.U.U.U.U.U.",
"U.U.U.U.U.^  .} 6 u.e.8.e : > l > > 4 >.q.y.{ < ..! U.U.U.U.U.U.",
"U.U.U.U.U.^  .z ) B.x.V.w : > 9 > > < P.n.m.N.< ..! U.U.U.U.U.U.",
"U.U.U.U.U.^  .z h k.k.k.8 : > l > > < k.k.k.s.< ..~ U.U.U.U.U.U.",
"U.U.U.U.U.^  .z ; i.i.i.8 > > 9 > > < i.i.i.( < ..! U.U.U.U.U.U.",
"U.U.U.U.U.Y 0 7 P R R R I P T W T L I R R R J / 9 / U.U.U.U.U.U.",
"U.U.U.U.U.o $ + G U.U.U.U.U.U.U.U.U.O U.U.U.U.H # @ U.U.U.U.U.U."
};
