/* XPM */
static char *_b9676b4a3f84b90d6fa16890b8b6c64NYj1MZFjX05PgcOL[] = {
/* columns rows colors chars-per-pixel */
"256 32 20 1 ",
"  c None",
". c #29262B",
"X c #550F0A",
"o c #463C3C",
"O c #5B3D3F",
"+ c #773421",
"@ c #613A32",
"# c #5D5A52",
"$ c #696A5B",
"% c #7A7C6C",
"& c #B23323",
"* c #97422A",
"= c #F17507",
"- c #BFA17A",
"; c #FBA955",
": c #FFB397",
"> c #FBE9A4",
", c #D7D7D7",
"< c #FFF7F2",
"1 c white",
/* pixels */
"                                                                                                                                                                                                                                                                ",
"                                                                                                                                                                                                                                                                ",
"                                                                                                                                                                                                                                                                ",
"                                              ::::                            ::::                            ::::                            ::::                                                                                                              ",
"              ::::                           :>>>>:                          :>>>>:                          :>>>>:                          :>>>>:                           ::::                            ::::                            ::::              ",
"             :>>>>:                          >>>>>>                          >>>>>>                          >>>>>>                          >>>>>>                          :>>>>:                          :>>>>:                          :>>>>:             ",
"             >>>>>>                         :>>>>>>:                        :>>>>>>:                        :>>>>>>:                        :>>>>>>:                         >>>>>>                          >>>>>>                          >>>>>>             ",
"            :>>>>>>:                     ,  :>>>>>>:                        :>>>>>>:                        :>>>>>>:                        :>>>>>>:                        :>>>>>>:                        :>>>>>>:                        :>>>>>>:            ",
"            :>>>>>>:                     ,, :..>>..:                        :..>>..:                        :..>>..:                        :..>>..:                        :>>>>>>:                        :>>>>>>:                        :>>>>>>:            ",
"            :..>>..:                     ,, .:O::O:.                  ##    .:O::O:.                   ##   .:O::O:.                        .:O::O:.                        :::>>:::                        :..>>..:                        :..>>..:            ",
"            .:O::O:.                     ,, ..>>>>..                  ##*   ..>>>>..                   ##*  ..>>>>..                     ,  ..>>>>..                        ...::...                        .:O::O:.                        .:O::O:.            ",
"            ..>>>>..                     ,,,........                   #:   ........                   ##:  ........                     ,  ........                        ..>>>>..                        ..>>>>..                        ..>>>>..            ",
"            ........                      ,,X......XX-                  - -XX......XX-                   :-XX......XX-                   ,,XX......XX                       ........                        ........                        ........            ",
"          -XX......XX-                    ,,,X....XXX--                ----XXX....XXX-                  ----XX....XXX-                   ,,-XX....XX--                    -XX......XX-                    -XX......XX-                    -XX......XX-          ",
"         ---XX....XXX--                   -,,+XXXX+XX--                ----XX+XXXX+XX--                 ----X+XXXX+XX--                  ,,-X+XXXX+X--                   --XXX....XX--                   --XXX....XXX--                  --XXX....XXX--         ",
"         ---X+XXXX+XX--                   -,,*++++*+X--                ----X+*++++*+X--                 ----+*++++*+X--                  ,,,+*++++*+--                   ---X;XXXX+X---                  --XX+XXXX+XX--                  --XX+XXXX+XX--         ",
"        ----+*++++*+---                   -,,,*****+---                 ---X+******+---                  --X+******+---                  ,,,,******+---                  ---+;++++*+---                  ---+*++++*+---                  ---+*++++*+---         ",
"        ----+******+---                    X,,*****+---                   XX+******+---                    X+******+---                   ,,,******+---                  ---+=*****+---                  ---+******+---                  ---+******+---         ",
"         --X+******+---                    X,,,****+---                   XX+******+---                     +******+---                   ,,,******+---                   --+=#****+---                  ---+##****+---                  ---+##****+---         ",
"          :X+##+++++:-                      ,,,+++++:-                     X++++++++:-                      ++++++++:-                     ,,,*****+---                 ;= *:##+++++:-                    -*:##+++++:-                    -*:##+++++:-          ",
"          :**##%%%%%:$                    $%%,,%%%%%:$                    $%%%%%%%%%:$                    $%%%%%%%%%:$                     ,,,,+++++:                  ;  $%:##%%=;%:$                    $%:##%%%%%:$                    $%:##%%%%%:$          ",
"         $%%&##=&&@@@%$                  $%%&,,=&&@@@%$                  $%%&===&&@@@%$                  $%%&===&&@@@%$                   $%1,1%%%%%:$                   $%%&#==&&@;@%$                  $%%&#==&&@@@%$                  $%%&#==&&@@@%$         ",
"         %%%%%%%%%%%%%%                  %%%%%%%%%%%%%%                  %%%%%%%%%%%%%%                  %%%%%%%%%%%%%%                  $%%&11<<&@@@%$                  %%%%%%%%%%%%%%              &   %%%%%%%%%%%%&=                  %%%%%%%%%%%%%%         ",
"         $%%%%%%%%%%%%$                  $%%%%%%%%%%%%$                  $%%%%%%%%%%%%$                  $%%%%%%%%%%%%$                  %%%%%%%%%%%%%%                  $%%%%%%%%%%%%$             =    $%%%%%%%%%%%%$                  $%%%%%%%%%%%%$         ",
"          $$$$$$$$$$$$                    $$$$$$$$$$$$                    $$$$$$$$$$$$                    $$$$$$$$$$$$                   $%%%%%%%%%%%%$                   $$$$$$$$$$$$                    $$$$$$$$$$$$                    $$$$$$$$$$$$  &       ",
"          oo########oo                    oo########oo                    oo########oo                    oo########oo                    $$$$$$$$$$$$                    oo########oo                    oo########oo            &       oo########oo          ",
"         oooooo####oooo                  oooooo####oooo                  oooooo####oooo                  oooooo####oooo                  ooo#########oo                  oooooo####oooo                  oooooo####oooo                  oooooo####oooo         ",
"         ooooooo##ooooo                  ooooooo##ooooo                  ooooooo##ooooo                  ooooooo##ooooo                  oooooooo#ooooo                  ooooooo##ooooo                  ooooooo##ooooo                  ooooooo##ooooo         ",
"         oooooooooooooo                  oooooooooooooo                  oooooooooooooo                  oooooooooooooo                  oooooooooooooo                  oooooooooooooo                  oooooooooooooo                  oooooooooooooo         ",
"          oooooooooooo                    oooooooooooo                    oooooooooooo                    oooooooooooo                    oooooooooooo                    oooooooooooo                    oooooooooooo                    oooooooooooo          ",
"            oooooooo                        oooooooo                        oooooooo                        oooooooo                       oooooooooo                       oooooooo                        oooooooo                        oooooooo            ",
"                                                                                                                                                                                                                                                                "
};
