/* XPM */
static char *result[] = {
/* columns rows colors chars-per-pixel */
"32 32 112 2 ",
"   c #2D4F53",
".  c #315759",
"X  c #376B59",
"o  c #347351",
"O  c #387B56",
"+  c #376264",
"@  c #38656A",
"#  c #3A696D",
"$  c #3C7963",
"%  c #3F7476",
"&  c #3F747A",
"*  c #5E736D",
"=  c #407476",
"-  c #4C7475",
";  c #417A76",
":  c #427679",
">  c #437B79",
",  c #537472",
"<  c #597470",
"1  c #63736C",
"2  c #6C7469",
"3  c #6E7A69",
"4  c #767264",
"5  c #717B68",
"6  c #8D755F",
"7  c #997956",
"8  c #977C59",
"9  c #9B7C58",
"0  c #AC6D4D",
"q  c #AF704F",
"w  c #B2714F",
"e  c #AC7454",
"r  c #A47F5A",
"t  c #B57754",
"y  c #B27854",
"u  c #BD7953",
"i  c #827361",
"p  c #C17B53",
"a  c #C87E54",
"s  c #3C865D",
"d  c #4D9A43",
"f  c #45954E",
"g  c #529E47",
"h  c #428753",
"j  c #4A9D51",
"k  c #4CA34F",
"l  c #5BA644",
"z  c #5DA945",
"x  c #56B743",
"c  c #57B843",
"v  c #5CBA46",
"b  c #53B34A",
"n  c #5AB64E",
"m  c #5FBC48",
"M  c #4FAE55",
"N  c #4DA758",
"B  c #4DAD5C",
"V  c #50A653",
"C  c #50AF55",
"Z  c #50B152",
"A  c #5CB75A",
"S  c #5DB85B",
"D  c #63BD4B",
"F  c #68BE4F",
"G  c #458B6D",
"H  c #46926C",
"J  c #44996D",
"K  c #499F6F",
"L  c #448276",
"P  c #458974",
"I  c #46847A",
"U  c #478A7A",
"Y  c #498E7B",
"T  c #499575",
"R  c #499B71",
"E  c #499179",
"W  c #5A9873",
"Q  c #6C966B",
"!  c #649C6F",
"~  c #699A6E",
"^  c #74956A",
"/  c #609F71",
"(  c #4BA566",
")  c #49A867",
"_  c #49A56A",
"`  c #4AA474",
"'  c #4CA876",
"]  c #4FAE7A",
"[  c #55A077",
"{  c #5BA474",
"}  c #50AE7B",
"|  c #66C04D",
" . c #68C24F",
".. c #6CC451",
"X. c #72C755",
"o. c #7AC555",
"O. c #74C857",
"+. c #78C853",
"@. c #76C958",
"#. c #7CCC5A",
"$. c #98815C",
"%. c #D18557",
"&. c #83CF5E",
"*. c #85D15B",
"=. c #8CD55F",
"-. c #87D160",
";. c #A0DF65",
":. c #A0E065",
">. c #AAE569",
",. c #B2E96B",
"<. c #BCEF6F",
"1. c None",
/* pixels */
"1.1.1.1.1.1.1.1.1.1.1.1.1.1.1.1.1.1.1.1.1.1.1.1.1.1.1.1.1.1.1.1.",
"1.1.1.1.1.1.1.1.1.1.1.1.1.1.1.l +.z 1.1.1.1.1.1.1.1.1.1.1.1.1.1.",
"1.1.1.1.1.1.1.1.1.1.1.1.1.1.d o.>.*.g 1.1.1.1.1.1.1.1.1.1.1.1.1.",
"1.1.1.1.1.1.1.1.1.1.1.1.j S &.,.<.<.-.A V 1.1.1.1.1.1.1.1.1.1.1.",
"1.1.1.1.1.1.1.1.1.1.1.V D O.:.<.<.<.;.X.F V 1.1.1.1.1.1.1.1.1.1.",
"1.1.1.1.1.1.1.1.1.1.f n ..@.*.>.<.,.=.O.X.n j 1.1.1.1.1.1.1.1.1.",
"1.1.1.1.1.1.1.1.X h x m ..O.O.#.=.*.O.O.X.m x f X 1.1.1.1.1.1.1.",
"1.1.1.1.1.1.1.1.H N x D O.O.O.O.@.O.O.O.X.D x M H X 1.1.1.1.1.1.",
"1.1.1.1.1.1.1.G ( b x D ..O.O.O.O.O.O.O.X.m c x ( H 1.1.1.1.1.1.",
"1.1.1.1.1.1.= R ) Z x v ..O.O.O.O.O.O.O.X.v c Z ) R ; 1.1.1.1.1.",
"1.1.1.1.1.1.; K ) Z x v  .O.O.O.O.O.O.O...v c Z ) _ L 1.1.1.1.1.",
"1.1.1.1.1.P T _ M x c c v v | X.O.O.| v v x c b ( ) T L 1.1.1.1.",
"1.1.1.1.1.P _ ) B b x x x x x | ..| x x c x x C ) ) ( I 1.1.1.1.",
"1.1.1.1.. P _ ) ) ) Z x x x x x c c x x x x b B _ ) ( U + 1.1.1.",
"1.1.1.1.% E K _ ) ) ) b x x x x x x x x x b C ) _ ) R E ; 1.1.1.",
"1.1.1.  % E K _ ) ) ) B B Z x x Z Z x x C B B ) _ _ T Y ; 1.1.1.",
"1.1.1.@ & Y E ( ) ) ) ) ) ) B C ) ) C B ) ) ) _ ) _ E Y > @ 1.1.",
"1.1.1.# & Y E T ` ) ) ) ) ) ) ) ) ) ) ) ) ) ) ) ` T Y Y ; # 1.1.",
"1.1.1.@ % I Y E R ) ) ) ) ) ) ) ) ) ) ) ( _ ) ) T E Y I : @ 1.1.",
"1.1.1.1.= I Y Y E R T R _ _ _ _ ) ) _ _ _ R ` T E Y Y > = 1.1.1.",
"1.1.1.1.1.: E Y Y Y Y E E E E _ _ ) E E E Y Y Y E Y Y : 1.1.1.1.",
"1.1.1.1.1.: > I E Y Y Y Y Y Y E T T Y Y Y Y Y Y Y Y > = 1.1.1.1.",
"1.1.1.1.1.1.& > U I U Y Y Y Y Y E Y Y Y Y Y Y I : : = 1.1.1.1.1.",
"1.1.1.1.1.1.1.= : : I U Y U Y Y E E Y U U U U > : : 1.1.1.1.1.1.",
"1.1.1.1.1.1.1.1.Y L : > I > > I U U > : : : > > T $ 1.1.1.1.1.1.",
"1.1.1.1.1.1.1.1.] [ 5 2 < - : = : : > - < 2 5 W ] s 1.1.1.1.1.1.",
"1.1.1.1.1.1.1.1.' { 9 y i 4 2 1 1 * 1 4 i e 9 / ] 1.1.1.1.1.1.1.",
"1.1.1.1.1.1.1.1.` } ~ $.t 0 0 0 u y 0 0 q 8 ~ } ` 1.1.1.1.1.1.1.",
"1.1.1.1.1.1.1.1.1.H } / Q ~ 9 a %.a 7 Q Q { } J 1.1.1.1.1.1.1.1.",
"1.1.1.1.1.1.1.1.1.1.` ] } } ~ $.t y ^ } ] ] } 1.1.1.1.1.1.1.1.1.",
"1.1.1.1.1.1.1.1.1.1.1.1.o ` ] { / / } ` O 1.1.1.1.1.1.1.1.1.1.1.",
"1.1.1.1.1.1.1.1.1.1.1.1.1.1.' } } } ` 1.1.1.1.1.1.1.1.1.1.1.1.1."
};
